<?xml version="1.0" encoding="utf-8"?>
<!-- Generator: Adobe Illustrator 21.1.0, SVG Export Plug-In . SVG Version: 6.00 Build 0)  -->
<svg version="1.1" id="Layer_1" xmlns="http://www.w3.org/2000/svg" xmlns:xlink="http://www.w3.org/1999/xlink" x="0px" y="0px"
	 viewBox="0 0 20 20" style="enable-background:new 0 0 20 20;" xml:space="preserve">
<style type="text/css">
	.st0{fill:#FFFFFF;}
</style>
<path class="st0" d="M2,4H0v14c0,1.1,0.9,2,2,2h14v-2H2V4z M18,0H6C4.9,0,4,0.9,4,2v12c0,1.1,0.9,2,2,2h12c1.1,0,2-0.9,2-2V2
	C20,0.9,19.1,0,18,0z M17,9H7V7h10V9z M13,13H7v-2h6V13z M17,5H7V3h10V5z"/>
</svg>
